<?xml version="1.0" encoding="utf-8"?>
<!-- Generator: Adobe Illustrator 23.0.1, SVG Export Plug-In . SVG Version: 6.00 Build 0)  -->
<svg version="1.1" id="Layer_1" xmlns="http://www.w3.org/2000/svg" xmlns:xlink="http://www.w3.org/1999/xlink" x="0px" y="0px"
	 viewBox="0 0 200 75" style="enable-background:new 0 0 200 75;" xml:space="preserve">
<style type="text/css">
	.st0{fill:url(#SVGID_1_);}
	.st1{fill:url(#SVGID_2_);}
	.st2{fill:none;stroke:url(#SVGID_3_);stroke-width:0.4508;}
	.st3{fill:url(#SVGID_4_);}
	.st4{fill:none;stroke:url(#SVGID_5_);stroke-width:0.4508;}
	.st5{fill:#FFFFFF;}
</style>
<linearGradient id="SVGID_1_" gradientUnits="userSpaceOnUse" x1="-14.7377" y1="149.3962" x2="-14.7377" y2="108.0808" gradientTransform="matrix(1.2579 0 0 -1.2579 50.7987 199.0157)">
	<stop  offset="0" style="stop-color:#A4C1FF"/>
	<stop  offset="1" style="stop-color:#0E78F9"/>
</linearGradient>
<path class="st0" d="M24.7,11.1c1,0,1.9,0,2.8,0h9.3c0.9,0,1.9,0,2.8,0c2.6,0,5.2,0,6.9,0.1c6.4,0.4,10.8,4.3,11.4,10.9
	c0.1,2.4,0.1,5.2,0.1,8.6v0c0,0.6,0,1.2,0,1.8v9.3c0,0.6,0,1.2,0,1.8c0,3.4,0,6.2-0.1,8.6c-0.6,6.6-5,10.5-11.4,10.9
	c-1.8,0.1-4.4,0.1-6.9,0.1c-1,0-1.9,0-2.8,0h-9.3c-0.9,0-1.9,0-2.8,0c-2.6,0-5.2,0-6.9-0.1C11.4,62.6,7,58.7,6.4,52.1
	c-0.1-2.4-0.1-5.2-0.1-8.6v0c0-0.6,0-1.2,0-1.8v-9.3c0-0.6,0-1.2,0-1.8v0c0-3.4,0-6.2,0.1-8.6c0.6-6.6,5-10.5,11.4-10.9
	C19.6,11.1,22.2,11.1,24.7,11.1z"/>
<g>
	
		<linearGradient id="SVGID_2_" gradientUnits="userSpaceOnUse" x1="-18.6467" y1="136.5736" x2="-18.6467" y2="120.9962" gradientTransform="matrix(1.2579 0 0 -1.2579 50.7987 199.0157)">
		<stop  offset="0" style="stop-color:#FFFFFF"/>
		<stop  offset="1" style="stop-color:#C5D4F7"/>
	</linearGradient>
	<path class="st1" d="M14.7,29.6c0-1.3,1.1-2.4,2.4-2.4h16.8c3.3,0,6,2.7,6,6v11.2c0,1.3-1.1,2.4-2.4,2.4H20.8c-3.3,0-6-2.7-6-6
		V29.6z"/>
	
		<linearGradient id="SVGID_3_" gradientUnits="userSpaceOnUse" x1="-18.6467" y1="136.5736" x2="-18.6467" y2="120.9962" gradientTransform="matrix(1.2579 0 0 -1.2579 50.7987 199.0157)">
		<stop  offset="0" style="stop-color:#FFFFFF"/>
		<stop  offset="1" style="stop-color:#637ACA"/>
	</linearGradient>
	<path class="st2" d="M17.1,27.5h16.8c3.2,0,5.8,2.6,5.8,5.8v11.2c0,1.2-0.9,2.1-2.1,2.1H20.8c-3.2,0-5.8-2.6-5.8-5.8V29.6
		C15,28.5,16,27.5,17.1,27.5z"/>
</g>
<g>
	
		<linearGradient id="SVGID_4_" gradientUnits="userSpaceOnUse" x1="-4.0961" y1="136.4233" x2="-4.0961" y2="121.1083" gradientTransform="matrix(1.2579 0 0 -1.2579 50.7987 199.0157)">
		<stop  offset="0" style="stop-color:#FFFFFF"/>
		<stop  offset="1" style="stop-color:#C5D4F7"/>
	</linearGradient>
	<path class="st3" d="M41.5,34.2c0-0.8,0.4-1.6,1-2.1l4.8-4.2c1-0.9,2.6-0.2,2.6,1.2v16.1c0,1.3-1.6,2.1-2.6,1.2l-4.4-3.7
		c-0.9-0.7-1.4-1.8-1.4-3V34.2z"/>
	
		<linearGradient id="SVGID_5_" gradientUnits="userSpaceOnUse" x1="-4.0961" y1="136.4229" x2="-4.0961" y2="121.1087" gradientTransform="matrix(1.2579 0 0 -1.2579 50.7987 199.0157)">
		<stop  offset="0" style="stop-color:#FFFFFF"/>
		<stop  offset="1" style="stop-color:#637ACA"/>
	</linearGradient>
	<path class="st4" d="M42.6,32.2l4.8-4.2c0.8-0.7,2.1-0.1,2.1,1v16.1c0,1.1-1.3,1.7-2.1,1L43,42.3c-0.8-0.7-1.3-1.7-1.3-2.8v-5.4
		C41.7,33.4,42.1,32.7,42.6,32.2z"/>
</g>
<g>
	<path class="st5" d="M69.5,33.4c0-1,0.2-1.9,0.6-2.8c0.4-0.9,0.9-1.7,1.5-2.3c0.6-0.7,1.4-1.2,2.3-1.6c0.9-0.4,1.8-0.6,2.8-0.6
		h10.7c1,0,1.9,0.2,2.8,0.6c0.9,0.4,1.6,0.9,2.3,1.6c0.6,0.7,1.2,1.4,1.5,2.3c0.4,0.9,0.6,1.8,0.6,2.8v14.8c0,0.5-0.2,1-0.5,1.3
		c-0.3,0.3-0.8,0.5-1.3,0.5c-0.5,0-0.9-0.2-1.3-0.5c-0.4-0.3-0.5-0.8-0.5-1.3v-3.8H73.1v3.9c0,0.5-0.2,0.9-0.5,1.3
		c-0.4,0.3-0.8,0.5-1.3,0.5c-0.5,0-1-0.2-1.3-0.5c-0.3-0.3-0.5-0.8-0.5-1.3V33.4z M73.1,40.7H91v-7.3c0-0.6-0.1-1.2-0.4-1.6
		c-0.3-0.5-0.6-0.8-1-1.1c-0.4-0.3-0.9-0.5-1.5-0.7s-1.2-0.2-1.8-0.2h-8.5c-0.6,0-1.2,0.1-1.8,0.2c-0.6,0.1-1.1,0.3-1.5,0.7
		c-0.4,0.3-0.8,0.7-1,1.1c-0.3,0.5-0.4,1-0.4,1.6V40.7z"/>
	<path class="st5" d="M99.3,33.4c0-1,0.2-1.9,0.6-2.8c0.4-0.9,0.9-1.7,1.6-2.3c0.7-0.7,1.4-1.2,2.3-1.6c0.9-0.4,1.8-0.6,2.8-0.6h8.9
		c1,0,1.9,0.2,2.8,0.6c0.9,0.4,1.7,0.9,2.3,1.6c0.7,0.7,1.2,1.4,1.6,2.3c0.4,0.9,0.6,1.8,0.6,2.8v9.1c0,1-0.2,1.9-0.6,2.8
		c-0.4,0.9-0.9,1.6-1.6,2.3c-0.7,0.6-1.4,1.2-2.3,1.5c-0.9,0.4-1.8,0.6-2.8,0.6h-8.9c-1,0-1.9-0.2-2.8-0.6c-0.9-0.4-1.7-0.9-2.3-1.5
		c-0.7-0.6-1.2-1.4-1.6-2.3c-0.4-0.9-0.6-1.8-0.6-2.8V33.4z M119.1,34.3c0-0.6-0.1-1.2-0.2-1.7c-0.1-0.6-0.4-1-0.7-1.4
		c-0.3-0.4-0.7-0.7-1.1-1c-0.4-0.3-1-0.4-1.6-0.4h-8c-1.3,0-2.3,0.3-3.2,0.9c-0.9,0.6-1.3,1.5-1.3,2.7v8.2c0,0.6,0.1,1.1,0.2,1.7
		c0.1,0.5,0.3,1,0.6,1.4c0.3,0.4,0.7,0.8,1.1,1c0.5,0.3,1,0.4,1.6,0.4h8c1.3,0,2.3-0.3,3.2-0.9s1.3-1.5,1.3-2.7V34.3z"/>
	<path class="st5" d="M127.3,33.4c0-1,0.2-1.9,0.6-2.8c0.4-0.9,0.9-1.7,1.6-2.3c0.7-0.7,1.4-1.2,2.3-1.6c0.9-0.4,1.8-0.6,2.8-0.6
		h8.9c1,0,1.9,0.2,2.8,0.6c0.9,0.4,1.7,0.9,2.3,1.6c0.7,0.7,1.2,1.4,1.6,2.3c0.4,0.9,0.6,1.8,0.6,2.8v9.1c0,1-0.2,1.9-0.6,2.8
		c-0.4,0.9-0.9,1.6-1.6,2.3c-0.7,0.6-1.4,1.2-2.3,1.5c-0.9,0.4-1.8,0.6-2.8,0.6h-8.9c-1,0-1.9-0.2-2.8-0.6c-0.9-0.4-1.7-0.9-2.3-1.5
		c-0.7-0.6-1.2-1.4-1.6-2.3c-0.4-0.9-0.6-1.8-0.6-2.8V33.4z M147.1,34.3c0-0.6-0.1-1.2-0.2-1.7c-0.1-0.6-0.4-1-0.7-1.4
		c-0.3-0.4-0.7-0.7-1.1-1c-0.4-0.3-1-0.4-1.6-0.4h-8c-1.3,0-2.3,0.3-3.2,0.9c-0.9,0.6-1.3,1.5-1.3,2.7v8.2c0,0.6,0.1,1.1,0.2,1.7
		s0.3,1,0.6,1.4c0.3,0.4,0.7,0.8,1.1,1c0.5,0.3,1,0.4,1.6,0.4h8c1.3,0,2.3-0.3,3.2-0.9s1.3-1.5,1.3-2.7V34.3z"/>
	<path class="st5" d="M182.7,33.4c0-0.5-0.1-0.9-0.3-1.4c-0.2-0.4-0.4-0.8-0.8-1.2c-0.3-0.3-0.7-0.6-1.1-0.8
		c-0.4-0.2-0.9-0.3-1.4-0.3h-2.7c-0.5,0-0.9,0.1-1.4,0.3s-0.8,0.4-1.1,0.8c-0.3,0.3-0.6,0.7-0.8,1.2c-0.2,0.4-0.3,0.9-0.3,1.4v14.8
		c0,0.5-0.2,1-0.5,1.3c-0.4,0.3-0.8,0.5-1.3,0.5c-0.5,0-1-0.2-1.3-0.5c-0.4-0.3-0.5-0.8-0.5-1.3V33.4c0-0.5-0.1-1-0.3-1.4
		c-0.2-0.4-0.4-0.8-0.8-1.2c-0.3-0.3-0.7-0.6-1.1-0.8s-0.9-0.3-1.4-0.3h-2.7c-1,0-1.9,0.4-2.6,1.1c-0.7,0.7-1.1,1.6-1.1,2.6v14.8
		c0,0.5-0.2,0.9-0.5,1.3c-0.4,0.3-0.8,0.5-1.3,0.5c-0.5,0-1-0.2-1.3-0.5c-0.3-0.3-0.5-0.8-0.5-1.3V33.4c0-1,0.2-1.9,0.6-2.8
		c0.4-0.9,0.9-1.7,1.6-2.3c0.7-0.7,1.4-1.2,2.3-1.6c0.9-0.4,1.8-0.6,2.8-0.6h1.8c2.7,0,4.8,0.9,6.3,2.6c1.5-1.7,3.6-2.6,6.3-2.6h1.9
		c1,0,1.9,0.2,2.8,0.6c0.9,0.4,1.6,0.9,2.3,1.6c0.6,0.7,1.2,1.4,1.5,2.3c0.4,0.9,0.6,1.8,0.6,2.8v14.8c0,0.5-0.2,1-0.5,1.3
		s-0.8,0.5-1.3,0.5c-0.5,0-0.9-0.2-1.3-0.5s-0.5-0.8-0.5-1.3V33.4z"/>
</g>
</svg>
